<svg width="33" height="27" viewBox="0 0 33 27" fill="none" xmlns="http://www.w3.org/2000/svg">
<path d="M17.162 7.52998L27.0576 6.35397C27.9053 6.25323 28.6718 6.77787 28.7002 7.47834L29.2397 20.7697C29.2656 21.4071 28.6657 21.9451 27.8876 21.9823L17.4525 22.4819C16.6274 22.5214 15.9317 21.9845 15.9317 21.3083V8.69337C15.9317 8.10938 16.4557 7.61392 17.162 7.52998Z" fill="black"/>
<path d="M15.838 7.52998L5.94239 6.35397C5.09469 6.25323 4.32823 6.77787 4.2998 7.47834L3.7603 20.7697C3.73443 21.4071 4.33434 21.9451 5.11242 21.9823L15.5475 22.4819C16.3726 22.5214 17.0683 21.9845 17.0683 21.3083V8.69337C17.0683 8.10938 16.5443 7.61392 15.838 7.52998Z" fill="black"/>
<path d="M16.9349 7.11417L26.6455 5.77495C26.9321 5.73542 27.1954 5.91226 27.2038 6.15003L27.7101 20.4597C27.7176 20.6702 27.5203 20.8479 27.2634 20.862L17.0465 21.4224C16.77 21.4376 16.5356 21.2581 16.5356 21.0314V7.50058C16.5356 7.3093 16.7044 7.14596 16.9349 7.11417Z" fill="white"/>
<path fill-rule="evenodd" clip-rule="evenodd" d="M26.5658 5.38853L16.8553 6.72774C16.3942 6.79133 16.0566 7.118 16.0566 7.50057V21.0314C16.0566 21.4849 16.5256 21.8437 17.0786 21.8134L27.2955 21.253C27.8092 21.2248 28.2038 20.8694 28.1889 20.4483L27.6826 6.13868C27.6657 5.66315 27.1392 5.30945 26.5658 5.38853ZM26.6455 5.77494L16.9349 7.11416C16.7044 7.14595 16.5356 7.30929 16.5356 7.50057V21.0314C16.5356 21.2581 16.77 21.4375 17.0465 21.4224L27.2634 20.862C27.5203 20.8479 27.7176 20.6702 27.7101 20.4597L27.2038 6.15002C27.1954 5.91226 26.9321 5.73541 26.6455 5.77494Z" fill="black"/>
<path d="M17.1096 7.08263L25.4466 4.92656C25.7498 4.84815 26.0605 5.0288 26.0697 5.28886L26.5751 19.5736C26.5819 19.7657 26.4175 19.9335 26.1868 19.9697L17.3444 21.3608C17.049 21.4072 16.775 21.2221 16.775 20.976V7.45628C16.775 7.28535 16.9104 7.13415 17.1096 7.08263Z" fill="white"/>
<path fill-rule="evenodd" clip-rule="evenodd" d="M25.3022 4.55295L16.9653 6.70902C16.5669 6.81205 16.2961 7.11446 16.2961 7.45631V20.976C16.2961 21.4682 16.8441 21.8386 17.4348 21.7456L26.2772 20.3546C26.7386 20.282 27.0675 19.9465 27.0539 19.5623L26.5484 5.27756C26.53 4.75743 25.9086 4.39612 25.3022 4.55295ZM25.4466 4.92659L17.1096 7.08267C16.9104 7.13418 16.775 7.28539 16.775 7.45631V20.976C16.775 21.2221 17.049 21.4073 17.3444 21.3608L26.1868 19.9698C26.4175 19.9335 26.5819 19.7657 26.5751 19.5736L26.0697 5.2889C26.0605 5.02884 25.7498 4.84818 25.4466 4.92659Z" fill="black"/>
<path d="M18.962 6.32312L20.4324 5.93042V9.15092L19.6972 8.78188L18.962 9.38339V6.32312Z" fill="black"/>
<path fill-rule="evenodd" clip-rule="evenodd" d="M18.483 6.32314C18.483 6.15357 18.6164 6.00324 18.8134 5.95062L20.2838 5.55792C20.4296 5.51897 20.5894 5.53954 20.7136 5.61326C20.8378 5.68698 20.9113 5.80491 20.9113 5.93044V9.15094C20.9113 9.29281 20.8176 9.4236 20.6663 9.49289C20.515 9.56218 20.3297 9.55915 20.1819 9.48496L19.7687 9.27755L19.3007 9.66051C19.1637 9.77258 18.9577 9.80611 18.7787 9.74546C18.5997 9.6848 18.483 9.54191 18.483 9.38342V6.32314ZM20.4324 9.15094L19.6972 8.7819L18.962 9.38342V6.32314L20.4324 5.93044V9.15094Z" fill="black"/>
<path d="M15.8525 7.11388L6.20961 5.77551C5.92275 5.73569 5.65913 5.91263 5.65076 6.15059L5.14765 20.4599C5.14026 20.6704 5.33743 20.848 5.59417 20.8622L15.7401 21.4222C16.0167 21.4375 16.2513 21.258 16.2513 21.0312V7.50023C16.2513 7.3091 16.0828 7.14585 15.8525 7.11388Z" fill="white"/>
<path fill-rule="evenodd" clip-rule="evenodd" d="M6.28972 5.38915L15.9326 6.72753C16.3932 6.79146 16.7302 7.11796 16.7302 7.50022V21.0312C16.7302 21.4848 16.261 21.8437 15.7079 21.8132L5.56193 21.2531C5.04845 21.2248 4.65411 20.8695 4.66891 20.4486L5.17201 6.13931C5.18874 5.6634 5.716 5.30952 6.28972 5.38915ZM6.20961 5.7755L15.8525 7.11387C16.0828 7.14584 16.2513 7.30909 16.2513 7.50022V21.0312C16.2513 21.258 16.0167 21.4375 15.7401 21.4222L5.59417 20.8621C5.33743 20.848 5.14026 20.6704 5.14766 20.4599L5.65076 6.15058C5.65913 5.91262 5.92275 5.73569 6.20961 5.7755Z" fill="black"/>
<path fill-rule="evenodd" clip-rule="evenodd" d="M13.5859 11.0013C13.9019 10.8866 14.2631 10.8977 14.5389 11.0042C14.6585 11.0504 14.7096 11.1672 14.6532 11.265C14.5967 11.3629 14.454 11.4048 14.3344 11.3586C14.1837 11.3004 13.9681 11.2913 13.7801 11.3595C13.6038 11.4235 13.4385 11.5603 13.384 11.8215C13.33 12.0809 13.4017 12.3294 13.56 12.4942C13.71 12.6505 13.9542 12.7501 14.3146 12.7002C14.445 12.6821 14.5686 12.754 14.5907 12.8607C14.6128 12.9673 14.5249 13.0685 14.3945 13.0865C13.8695 13.1592 13.447 13.0109 13.1833 12.7363C12.928 12.4704 12.8391 12.1051 12.9119 11.7556C12.9924 11.3693 13.2582 11.1202 13.5859 11.0013Z" fill="black"/>
<path fill-rule="evenodd" clip-rule="evenodd" d="M25.5625 10.0214C25.5371 9.91524 25.4113 9.84596 25.2815 9.86671L17.6453 11.0872C17.5155 11.108 17.4309 11.2109 17.4562 11.3171C17.4816 11.4233 17.6074 11.4926 17.7372 11.4718L25.3734 10.2513C25.5032 10.2306 25.5878 10.1276 25.5625 10.0214Z" fill="black"/>
<path fill-rule="evenodd" clip-rule="evenodd" d="M25.5625 10.9223C25.5371 10.8161 25.4113 10.7468 25.2815 10.7676L17.6453 11.9881C17.5155 12.0088 17.4309 12.1117 17.4562 12.2179C17.4816 12.3241 17.6074 12.3934 17.7372 12.3727L25.3734 11.1522C25.5032 11.1314 25.5878 11.0285 25.5625 10.9223Z" fill="black"/>
<path fill-rule="evenodd" clip-rule="evenodd" d="M25.5625 14.5403C25.5371 14.434 25.4113 14.3648 25.2815 14.3855L17.6453 15.606C17.5155 15.6268 17.4309 15.7297 17.4562 15.8359C17.4816 15.9421 17.6074 16.0114 17.7372 15.9906L25.3734 14.7701C25.5032 14.7494 25.5878 14.6465 25.5625 14.5403Z" fill="black"/>
<path fill-rule="evenodd" clip-rule="evenodd" d="M25.5625 11.8522C25.5371 11.746 25.4113 11.6768 25.2815 11.6975L17.6453 12.918C17.5155 12.9388 17.4309 13.0417 17.4562 13.1479C17.4816 13.2541 17.6074 13.3234 17.7372 13.3026L25.3734 12.0821C25.5032 12.0614 25.5878 11.9584 25.5625 11.8522Z" fill="black"/>
<path fill-rule="evenodd" clip-rule="evenodd" d="M25.5625 15.4702C25.5371 15.364 25.4113 15.2947 25.2815 15.3155L17.6453 16.536C17.5155 16.5567 17.4309 16.6596 17.4562 16.7658C17.4816 16.872 17.6074 16.9413 17.7372 16.9205L25.3734 15.7C25.5032 15.6793 25.5878 15.5764 25.5625 15.4702Z" fill="black"/>
<path fill-rule="evenodd" clip-rule="evenodd" d="M25.5625 12.8185C25.5371 12.7123 25.4113 12.643 25.2815 12.6638L17.6453 13.8843C17.5155 13.905 17.4309 14.0079 17.4562 14.1141C17.4816 14.2203 17.6074 14.2896 17.7372 14.2689L25.3734 13.0484C25.5032 13.0276 25.5878 12.9247 25.5625 12.8185Z" fill="black"/>
<path fill-rule="evenodd" clip-rule="evenodd" d="M25.5625 16.4365C25.5371 16.3303 25.4113 16.261 25.2815 16.2817L17.6453 17.5022C17.5155 17.523 17.4309 17.6259 17.4562 17.7321C17.4816 17.8383 17.6074 17.9076 17.7372 17.8868L25.3734 16.6663C25.5032 16.6456 25.5878 16.5427 25.5625 16.4365Z" fill="black"/>
<path fill-rule="evenodd" clip-rule="evenodd" d="M22.1004 18.0026C22.078 17.896 21.9541 17.8244 21.8238 17.8428L17.6505 18.4313C17.5201 18.4497 17.4327 18.551 17.4552 18.6577C17.4776 18.7643 17.6015 18.8359 17.7318 18.8175L21.9051 18.229C22.0354 18.2106 22.1229 18.1092 22.1004 18.0026Z" fill="black"/>
<path fill-rule="evenodd" clip-rule="evenodd" d="M6.72514 14.2293C6.73723 14.1216 6.85379 14.0422 6.98549 14.0521L14.7283 14.6333C14.86 14.6432 14.9569 14.7385 14.9448 14.8463C14.9328 14.9541 14.8162 15.0334 14.6845 15.0235L6.94174 14.4423C6.81003 14.4324 6.71306 14.3371 6.72514 14.2293Z" fill="black"/>
<path fill-rule="evenodd" clip-rule="evenodd" d="M6.72514 16.844C6.73723 16.7362 6.85379 16.6569 6.98549 16.6668L14.7283 17.2479C14.86 17.2578 14.9569 17.3532 14.9448 17.461C14.9328 17.5687 14.8162 17.6481 14.6845 17.6382L6.94174 17.057C6.81003 17.0471 6.71306 16.9517 6.72514 16.844Z" fill="black"/>
<path fill-rule="evenodd" clip-rule="evenodd" d="M6.72468 15.1624C6.73355 15.0544 6.84772 14.9728 6.97968 14.98L11.2062 15.2125C11.3382 15.2198 11.438 15.3132 11.4291 15.4211C11.4202 15.5291 11.3061 15.6107 11.1741 15.6035L6.94755 15.371C6.81559 15.3638 6.71581 15.2703 6.72468 15.1624Z" fill="black"/>
<path fill-rule="evenodd" clip-rule="evenodd" d="M6.72473 17.7765C6.73396 17.6686 6.8484 17.5872 6.98034 17.5947L13.046 17.9422C13.178 17.9497 13.2774 18.0433 13.2682 18.1513C13.2589 18.2592 13.1445 18.3406 13.0126 18.3331L6.94689 17.9857C6.81496 17.9781 6.71549 17.8845 6.72473 17.7765Z" fill="black"/>
<path fill-rule="evenodd" clip-rule="evenodd" d="M6.72468 18.6113C6.73355 18.5033 6.84772 18.4216 6.97968 18.4289L11.2062 18.6614C11.3382 18.6686 11.438 18.762 11.4291 18.87C11.4202 18.978 11.3061 19.0596 11.1741 19.0524L6.94755 18.8199C6.81559 18.8126 6.71581 18.7192 6.72468 18.6113Z" fill="black"/>
<path fill-rule="evenodd" clip-rule="evenodd" d="M8.29909 8.52659C8.40125 8.53058 8.48904 8.58722 8.51761 8.66757L9.9383 12.6633C9.97524 12.7672 9.90224 12.8759 9.77525 12.9061C9.64825 12.9364 9.51535 12.8766 9.47841 12.7727L8.25249 9.32482L6.64553 12.6306C6.59665 12.7311 6.4574 12.7802 6.33451 12.7402C6.21161 12.7002 6.15161 12.5863 6.20049 12.4858L8.06514 8.64989C8.10294 8.57213 8.19693 8.5226 8.29909 8.52659Z" fill="black"/>
<path fill-rule="evenodd" clip-rule="evenodd" d="M9.3353 11.1998C9.3353 11.308 9.22808 11.3957 9.09582 11.3957L7.09795 11.3957C6.96569 11.3957 6.85847 11.308 6.85847 11.1997C6.85848 11.0915 6.96569 11.0038 7.09795 11.0038L9.09582 11.0038C9.22808 11.0038 9.3353 11.0915 9.3353 11.1998Z" fill="black"/>
<path fill-rule="evenodd" clip-rule="evenodd" d="M10.9778 10.1317V10.9322C11.0407 10.9342 11.1081 10.94 11.1761 10.9485C11.2695 10.9423 11.3716 10.9288 11.468 10.9041C11.5814 10.8749 11.669 10.8347 11.7259 10.7863C11.7776 10.7424 11.813 10.6849 11.813 10.5966C11.813 10.4253 11.6893 10.3103 11.4632 10.2289C11.3124 10.1747 11.1365 10.1448 10.9778 10.1317ZM11.928 11.1561C11.9787 11.1279 12.027 11.0955 12.071 11.058C12.2075 10.942 12.2919 10.7874 12.2919 10.5966C12.2919 10.2101 11.9776 9.98597 11.6561 9.87025C11.3398 9.75639 10.9733 9.72707 10.7319 9.73241C10.6022 9.73527 10.4989 9.82212 10.4989 9.92827V12.7471C10.4989 12.8338 10.5685 12.9102 10.6701 12.9349C10.9295 12.998 11.3534 13.021 11.7368 12.9212C11.932 12.8704 12.1269 12.785 12.2819 12.6482C12.4391 12.5094 12.5444 12.3272 12.5747 12.0999C12.6379 11.6257 12.2938 11.3257 11.928 11.1561ZM10.9778 11.3435C11.0316 11.3452 11.0902 11.345 11.1519 11.3424C11.2959 11.3638 11.4629 11.4035 11.6169 11.4648C11.9313 11.59 12.136 11.7763 12.0985 12.0574C12.0788 12.2057 12.014 12.3081 11.9306 12.3818C11.845 12.4574 11.7286 12.5121 11.5916 12.5478C11.3856 12.6014 11.1561 12.6059 10.9778 12.5875V11.3435Z" fill="black"/>
</svg>
