<svg width="33" height="27" viewBox="0 0 33 27" fill="none" xmlns="http://www.w3.org/2000/svg">
<path d="M8.31558 6.28482C8.31558 5.42558 9.16692 4.72903 10.2171 4.72903H24.5261C25.5763 4.72903 26.4277 5.42558 26.4277 6.28482V22.1415C26.4277 23.0008 25.5763 23.6973 24.5261 23.6973H10.2171C9.16692 23.6973 8.31558 23.0008 8.31558 22.1415V6.28482Z" fill="black"/>
<path d="M7.04776 5.24747C7.04776 4.38823 7.8991 3.69168 8.94928 3.69168H23.2583C24.3085 3.69168 25.1598 4.38823 25.1598 5.24747V21.1042C25.1598 21.9634 24.3085 22.66 23.2583 22.66H8.94928C7.8991 22.66 7.04776 21.9634 7.04776 21.1042V5.24747Z" fill="white"/>
<path fill-rule="evenodd" clip-rule="evenodd" d="M8.94929 3.30273H23.2583C24.5711 3.30273 25.6352 4.17342 25.6352 5.24747V21.1042C25.6352 22.1782 24.571 23.0489 23.2583 23.0489H8.94929C7.63656 23.0489 6.57239 22.1782 6.57239 21.1042V5.24747C6.57239 4.17342 7.63656 3.30273 8.94929 3.30273ZM8.94929 3.69168C7.89911 3.69168 7.04777 4.38823 7.04777 5.24747V21.1042C7.04777 21.9634 7.89911 22.66 8.94929 22.66H23.2583C24.3085 22.66 25.1598 21.9634 25.1598 21.1042V5.24747C25.1598 4.38823 24.3085 3.69168 23.2583 3.69168H8.94929Z" fill="black"/>
<path d="M9.24397 6.21112C9.24397 5.7815 9.66964 5.43323 10.1947 5.43323H22.2622C22.7872 5.43323 23.2129 5.7815 23.2129 6.21112V8.0339C23.2129 8.46352 22.7872 8.8118 22.2622 8.8118H10.1947C9.66964 8.8118 9.24397 8.46352 9.24397 8.0339V6.21112Z" fill="black"/>
<path fill-rule="evenodd" clip-rule="evenodd" d="M10.0815 10.186H12.1192C12.6443 10.186 13.07 10.5342 13.07 10.9639V11.3126C13.07 11.7422 12.6443 12.0905 12.1192 12.0905H10.0815C9.55641 12.0905 9.13074 11.7422 9.13074 11.3126V10.9639C9.13074 10.5342 9.55641 10.186 10.0815 10.186ZM10.0815 10.5749C9.81895 10.5749 9.60612 10.7491 9.60612 10.9639V11.3126C9.60612 11.5274 9.81895 11.7015 10.0815 11.7015H12.1192C12.3818 11.7015 12.5946 11.5274 12.5946 11.3126V10.9639C12.5946 10.7491 12.3818 10.5749 12.1192 10.5749H10.0815Z" fill="black"/>
<path fill-rule="evenodd" clip-rule="evenodd" d="M10.0815 12.9274H12.1192C12.6443 12.9274 13.07 13.2756 13.07 13.7053V14.054C13.07 14.4836 12.6443 14.8319 12.1192 14.8319H10.0815C9.55641 14.8319 9.13074 14.4836 9.13074 14.054V13.7053C9.13074 13.2756 9.55641 12.9274 10.0815 12.9274ZM10.0815 13.3163C9.81895 13.3163 9.60612 13.4905 9.60612 13.7053V14.054C9.60612 14.2688 9.81895 14.4429 10.0815 14.4429H12.1192C12.3818 14.4429 12.5946 14.2688 12.5946 14.054V13.7053C12.5946 13.4905 12.3818 13.3163 12.1192 13.3163H10.0815Z" fill="black"/>
<path fill-rule="evenodd" clip-rule="evenodd" d="M10.0815 15.817H12.1192C12.6443 15.817 13.07 16.1653 13.07 16.5949V16.9436C13.07 17.3733 12.6443 17.7215 12.1192 17.7215H10.0815C9.55641 17.7215 9.13074 17.3733 9.13074 16.9436V16.5949C9.13074 16.1653 9.55641 15.817 10.0815 15.817ZM10.0815 16.206C9.81895 16.206 9.60612 16.3801 9.60612 16.5949V16.9436C9.60612 17.1584 9.81895 17.3326 10.0815 17.3326H12.1192C12.3818 17.3326 12.5946 17.1584 12.5946 16.9436V16.5949C12.5946 16.3801 12.3818 16.206 12.1192 16.206H10.0815Z" fill="black"/>
<path fill-rule="evenodd" clip-rule="evenodd" d="M10.0815 18.7068H12.1192C12.6443 18.7068 13.07 19.055 13.07 19.4847V19.8334C13.07 20.263 12.6443 20.6113 12.1192 20.6113H10.0815C9.55641 20.6113 9.13074 20.263 9.13074 19.8334V19.4847C9.13074 19.055 9.55641 18.7068 10.0815 18.7068ZM10.0815 19.0957C9.81895 19.0957 9.60612 19.2698 9.60612 19.4847V19.8334C9.60612 20.0482 9.81895 20.2223 10.0815 20.2223H12.1192C12.3818 20.2223 12.5946 20.0482 12.5946 19.8334V19.4847C12.5946 19.2698 12.3818 19.0957 12.1192 19.0957H10.0815Z" fill="black"/>
<path fill-rule="evenodd" clip-rule="evenodd" d="M15.334 10.186H17.3718C17.8968 10.186 18.3225 10.5342 18.3225 10.9639V11.3126C18.3225 11.7422 17.8969 12.0905 17.3718 12.0905H15.334C14.8089 12.0905 14.3833 11.7422 14.3833 11.3126V10.9639C14.3833 10.5342 14.8089 10.186 15.334 10.186ZM15.334 10.5749C15.0715 10.5749 14.8586 10.7491 14.8586 10.9639V11.3126C14.8586 11.5274 15.0715 11.7015 15.334 11.7015H17.3718C17.6343 11.7015 17.8471 11.5274 17.8471 11.3126V10.9639C17.8471 10.7491 17.6343 10.5749 17.3718 10.5749H15.334Z" fill="black"/>
<path fill-rule="evenodd" clip-rule="evenodd" d="M15.334 12.9274H17.3718C17.8968 12.9274 18.3225 13.2756 18.3225 13.7053V14.054C18.3225 14.4836 17.8969 14.8319 17.3718 14.8319H15.334C14.8089 14.8319 14.3833 14.4836 14.3833 14.054V13.7053C14.3833 13.2756 14.8089 12.9274 15.334 12.9274ZM15.334 13.3163C15.0715 13.3163 14.8586 13.4905 14.8586 13.7053V14.054C14.8586 14.2688 15.0715 14.4429 15.334 14.4429H17.3718C17.6343 14.4429 17.8471 14.2688 17.8471 14.054V13.7053C17.8471 13.4905 17.6343 13.3163 17.3718 13.3163H15.334Z" fill="black"/>
<path fill-rule="evenodd" clip-rule="evenodd" d="M15.334 15.817H17.3718C17.8968 15.817 18.3225 16.1653 18.3225 16.5949V16.9436C18.3225 17.3733 17.8969 17.7215 17.3718 17.7215H15.334C14.8089 17.7215 14.3833 17.3733 14.3833 16.9436V16.5949C14.3833 16.1653 14.8089 15.817 15.334 15.817ZM15.334 16.206C15.0715 16.206 14.8586 16.3801 14.8586 16.5949V16.9436C14.8586 17.1584 15.0715 17.3326 15.334 17.3326H17.3718C17.6343 17.3326 17.8471 17.1584 17.8471 16.9436V16.5949C17.8471 16.3801 17.6343 16.206 17.3718 16.206H15.334Z" fill="black"/>
<path fill-rule="evenodd" clip-rule="evenodd" d="M15.334 18.7068H17.3718C17.8968 18.7068 18.3225 19.055 18.3225 19.4847V19.8334C18.3225 20.263 17.8969 20.6113 17.3718 20.6113H15.334C14.8089 20.6113 14.3833 20.263 14.3833 19.8334V19.4847C14.3833 19.055 14.8089 18.7068 15.334 18.7068ZM15.334 19.0957C15.0715 19.0957 14.8586 19.2698 14.8586 19.4847V19.8334C14.8586 20.0482 15.0715 20.2223 15.334 20.2223H17.3718C17.6343 20.2223 17.8471 20.0482 17.8471 19.8334V19.4847C17.8471 19.2698 17.6343 19.0957 17.3718 19.0957H15.334Z" fill="black"/>
<path fill-rule="evenodd" clip-rule="evenodd" d="M20.4508 10.186H22.4885C23.0136 10.186 23.4392 10.5342 23.4392 10.9639V11.3126C23.4392 11.7422 23.0136 12.0905 22.4885 12.0905H20.4508C19.9257 12.0905 19.5 11.7422 19.5 11.3126V10.9639C19.5 10.5342 19.9257 10.186 20.4508 10.186ZM20.4508 10.5749C20.1882 10.5749 19.9754 10.7491 19.9754 10.9639V11.3126C19.9754 11.5274 20.1882 11.7015 20.4508 11.7015H22.4885C22.751 11.7015 22.9639 11.5274 22.9639 11.3126V10.9639C22.9639 10.7491 22.751 10.5749 22.4885 10.5749H20.4508Z" fill="black"/>
<path fill-rule="evenodd" clip-rule="evenodd" d="M20.1789 12.9274H22.2166C22.7417 12.9274 23.1674 13.2756 23.1674 13.7053V19.8333C23.1674 20.2629 22.7417 20.6112 22.2166 20.6112H20.1789C19.6538 20.6112 19.2281 20.2629 19.2281 19.8333V13.7053C19.2281 13.2756 19.6538 12.9274 20.1789 12.9274ZM20.1789 13.3163C19.9164 13.3163 19.7035 13.4905 19.7035 13.7053V19.8333C19.7035 20.0481 19.9164 20.2223 20.1789 20.2223H22.2166C22.4792 20.2223 22.692 20.0481 22.692 19.8333V13.7053C22.692 13.4905 22.4792 13.3163 22.2166 13.3163H20.1789Z" fill="black"/>
<path fill-rule="evenodd" clip-rule="evenodd" d="M20.462 16.3695C20.462 16.2621 20.5684 16.175 20.6997 16.175H21.6959C21.8271 16.175 21.9335 16.2621 21.9335 16.3695C21.9335 16.4769 21.8271 16.564 21.6959 16.564H20.6997C20.5684 16.564 20.462 16.4769 20.462 16.3695Z" fill="black"/>
<path fill-rule="evenodd" clip-rule="evenodd" d="M20.462 17.092C20.462 16.9846 20.5684 16.8975 20.6997 16.8975H21.6959C21.8271 16.8975 21.9335 16.9846 21.9335 17.092C21.9335 17.1994 21.8271 17.2864 21.6959 17.2864H20.6997C20.5684 17.2864 20.462 17.1994 20.462 17.092Z" fill="black"/>
<path fill-rule="evenodd" clip-rule="evenodd" d="M20.462 6.59628C20.462 6.29555 20.76 6.05176 21.1275 6.05176H21.3359C21.7035 6.05176 22.0015 6.29555 22.0015 6.59628V7.55405C22.0015 7.85479 21.7035 8.09858 21.3359 8.09858H21.1275C20.76 8.09858 20.462 7.85479 20.462 7.55405V6.59628ZM21.1275 6.44071C21.0225 6.44071 20.9374 6.51036 20.9374 6.59628V7.55405C20.9374 7.63998 21.0225 7.70963 21.1275 7.70963H21.3359C21.441 7.70963 21.5261 7.63998 21.5261 7.55405V6.59628C21.5261 6.51036 21.441 6.44071 21.3359 6.44071H21.1275Z" fill="white"/>
</svg>
