<svg width="33" height="27" viewBox="0 0 33 27" fill="none" xmlns="http://www.w3.org/2000/svg">
<path d="M24.695 13.6637C24.695 17.3667 21.026 20.3686 16.5001 20.3686C11.9742 20.3686 8.30524 17.3667 8.30524 13.6637C8.30524 9.96072 11.9742 6.95883 16.5001 6.95883C21.026 6.95883 24.695 9.96072 24.695 13.6637Z" fill="white"/>
<path fill-rule="evenodd" clip-rule="evenodd" d="M25.2106 13.6637C25.2106 17.5997 21.3108 20.7905 16.5001 20.7905C11.6894 20.7905 7.78962 17.5997 7.78962 13.6637C7.78962 9.72772 11.6894 6.53696 16.5001 6.53696C21.3108 6.53696 25.2106 9.72772 25.2106 13.6637ZM16.5001 20.3686C21.026 20.3686 24.695 17.3667 24.695 13.6637C24.695 9.96072 21.026 6.95883 16.5001 6.95883C11.9742 6.95883 8.30524 9.96072 8.30524 13.6637C8.30524 17.3667 11.9742 20.3686 16.5001 20.3686Z" fill="black"/>
<path fill-rule="evenodd" clip-rule="evenodd" d="M15.4686 19.9468C19.9946 19.9468 23.6635 16.9449 23.6635 13.2419C23.6635 10.7834 22.0462 8.63391 19.6346 7.46683C22.6052 8.47385 24.6949 10.8691 24.6949 13.6637C24.6949 17.3667 21.0259 20.3686 16.5 20.3686C14.979 20.3686 13.5548 20.0296 12.334 19.4388C13.2997 19.7662 14.3584 19.9468 15.4686 19.9468Z" fill="black"/>
<path fill-rule="evenodd" clip-rule="evenodd" d="M6.96419 9.07622C7.78993 11.2594 9.51057 13.8715 11.9171 16.4093C14.3236 18.947 16.9886 20.9596 19.3681 22.1565C20.5562 22.754 21.6974 23.1606 22.717 23.3159C23.7359 23.4711 24.6952 23.3827 25.4296 22.9165C26.164 22.4503 26.5071 21.712 26.5764 20.8659C26.6458 20.0192 26.4481 19.0138 26.0358 17.9238C25.2101 15.7406 23.4895 13.1285 21.0829 10.5907C18.6764 8.05298 16.0115 6.04035 13.6319 4.8435C12.4438 4.24594 11.3026 3.83943 10.2831 3.68409C9.26415 3.52886 8.30478 3.61729 7.5704 4.08348C6.83602 4.54967 6.49296 5.28803 6.4236 6.13412C6.35418 6.98076 6.55192 7.98619 6.96419 9.07622ZM12.3245 16.1507C7.56735 11.1341 5.58039 5.88072 7.88648 4.4168C10.1926 2.95287 15.9184 5.83282 20.6755 10.8493C25.4327 15.8658 27.4196 21.1193 25.1135 22.5832C22.8075 24.0471 17.0816 21.1672 12.3245 16.1507Z" fill="black"/>
<path fill-rule="evenodd" clip-rule="evenodd" d="M27.216 11.0085C25.8037 13.0164 23.3993 15.2729 20.3511 17.3265C17.3029 19.3801 14.1349 20.8779 11.4554 21.6267C10.1185 22.0002 8.86266 22.1988 7.78353 22.1653C6.70542 22.1318 5.71011 21.8603 5.05575 21.2102C4.4014 20.56 4.26679 19.7087 4.43345 18.8366C4.60026 17.9636 5.07941 16.9933 5.78404 15.9915C7.19629 13.9836 9.60073 11.7271 12.6489 9.67344C15.6971 7.61984 18.8651 6.12207 21.5446 5.37331C22.8815 4.99972 24.1373 4.80114 25.2165 4.83468C26.2946 4.86819 27.2899 5.13962 27.9443 5.7898C28.5986 6.43998 28.7332 7.29128 28.5666 8.16341C28.3997 9.03637 27.9206 10.0066 27.216 11.0085ZM19.8595 16.838C25.8502 12.802 29.2026 8.0356 27.3472 6.19206C25.4918 4.34851 19.1313 6.1259 13.1406 10.162C7.14982 14.198 3.79745 18.9644 5.65282 20.8079C7.50819 22.6515 13.8687 20.8741 19.8595 16.838Z" fill="black"/>
<path d="M28.7721 9.06888C28.7721 9.51364 28.3314 9.87419 27.7878 9.87419C27.2442 9.87419 26.8036 9.51364 26.8036 9.06888C26.8036 8.62413 27.2442 8.26358 27.7878 8.26358C28.3314 8.26358 28.7721 8.62413 28.7721 9.06888Z" fill="black"/>
<path d="M14.3266 9.87418C14.3266 10.3189 13.8859 10.6795 13.3423 10.6795C12.7987 10.6795 12.3581 10.3189 12.3581 9.87418C12.3581 9.42943 12.7987 9.06888 13.3423 9.06888C13.8859 9.06888 14.3266 9.42943 14.3266 9.87418Z" fill="black"/>
<path d="M14.1674 20.5208C14.1674 21.2076 13.4869 21.7643 12.6476 21.7643C11.8082 21.7643 11.1278 21.2076 11.1278 20.5208C11.1278 19.834 11.8082 19.2773 12.6476 19.2773C13.4869 19.2773 14.1674 19.834 14.1674 20.5208Z" fill="black"/>
</svg>
