<svg width="33" height="27" viewBox="0 0 33 27" fill="none" xmlns="http://www.w3.org/2000/svg">
<path d="M3.59479 14.9361C3.59479 14.2509 3.82404 13.8943 4.25995 13.6221L17.6587 18.146C16.9819 19.8354 17.5458 21.3596 18.2208 21.7876L4.53544 16.6724C4.1473 16.4239 3.59479 15.8089 3.59479 14.9361Z" fill="white"/>
<path fill-rule="evenodd" clip-rule="evenodd" d="M3.94713 13.2867C4.093 13.1956 4.28703 13.1748 4.45664 13.2321L17.8554 17.756C18.1048 17.8402 18.2327 18.0676 18.1487 18.2774C17.8375 19.0541 17.8142 19.7869 17.9404 20.3657C18.0716 20.9674 18.3459 21.3332 18.5366 21.4541C18.7436 21.5854 18.7975 21.8226 18.662 22.0059C18.5265 22.1892 18.2447 22.2603 18.0065 22.1713L4.32118 17.0561C4.28432 17.0424 4.24957 17.0251 4.21766 17.0046C3.7206 16.6864 3.07916 15.9544 3.07916 14.9361C3.07916 14.5573 3.14211 14.2342 3.2916 13.9549C3.4445 13.6693 3.67264 13.4581 3.94713 13.2867ZM4.53544 16.6724C4.1473 16.4239 3.59479 15.8089 3.59479 14.9361C3.59479 14.2509 3.82404 13.8943 4.25995 13.6221L17.6587 18.146C17.1883 19.3201 17.3172 20.4145 17.6662 21.1165C17.8194 21.4246 18.0149 21.6571 18.2208 21.7876L4.53544 16.6724Z" fill="#094B35"/>
<path d="M29.4052 9.31317L16.4448 5.21243L4.19324 13.6624L18.2674 18.5088L29.4052 9.31317Z" fill="#094B35"/>
<path fill-rule="evenodd" clip-rule="evenodd" d="M16.1125 4.88988C16.2565 4.79058 16.4552 4.76339 16.6308 4.81896L29.5912 8.9197C29.7534 8.97104 29.8731 9.08585 29.9095 9.22505C29.9458 9.36424 29.8939 9.50904 29.7715 9.61014L18.6336 18.8057C18.4855 18.928 18.2614 18.9644 18.0674 18.8976L3.99323 14.0513C3.82781 13.9943 3.71049 13.8711 3.68349 13.7259C3.65649 13.5807 3.72369 13.4345 3.86091 13.3399L16.1125 4.88988ZM16.4448 5.21244L29.4052 9.31318L18.2674 18.5088L4.19325 13.6624L16.4448 5.21244Z" fill="#094B35"/>
<path d="M21.9948 10.2761L16.328 8.45526L15.2402 9.21891L20.8592 11.1443L21.9948 10.2761Z" fill="white"/>
<path d="M29.3939 12.4582C28.155 11.6323 28.3844 10.3089 29.3365 9.33276L17.7503 18.2867C17.0392 19.6851 17.6163 21.0373 18.2322 21.7828L29.3939 12.4582Z" fill="white"/>
<path fill-rule="evenodd" clip-rule="evenodd" d="M29.6856 9.02229C29.8849 9.17226 29.9084 9.42278 29.7395 9.59592C29.3173 10.0288 29.0762 10.5186 29.0589 10.9651C29.0422 11.3974 29.2318 11.8059 29.7196 12.1311C29.8319 12.206 29.9006 12.3162 29.9087 12.4346C29.9168 12.5529 29.8637 12.6687 29.7623 12.7534L18.6006 22.078C18.4923 22.1685 18.34 22.2144 18.1857 22.203C18.0315 22.1916 17.8918 22.1241 17.805 22.0191C17.1279 21.1994 16.4751 19.6962 17.2743 18.1246C17.3021 18.0699 17.3437 18.0207 17.3963 17.98L28.9825 9.02607C29.1793 8.87396 29.4864 8.87231 29.6856 9.02229ZM29.3365 9.33276L17.7503 18.2867C17.1463 19.4745 17.4717 20.6289 17.9609 21.4066C18.0476 21.5445 18.1395 21.6706 18.2322 21.7828L29.3939 12.4582C29.2667 12.3734 29.155 12.2834 29.0579 12.189C28.543 11.6883 28.4411 11.0658 28.6316 10.4579C28.7549 10.0643 29.0008 9.67696 29.3365 9.33276Z" fill="#094B35"/>
<path fill-rule="evenodd" clip-rule="evenodd" d="M28.6729 12.3491C28.7719 12.4328 28.7693 12.5663 28.667 12.6473L20.7747 18.8982C20.6723 18.9792 20.5091 18.9771 20.4101 18.8933C20.3111 18.8096 20.3137 18.6761 20.416 18.5951L28.3083 12.3442C28.4106 12.2632 28.5738 12.2654 28.6729 12.3491Z" fill="#094B35"/>
<path fill-rule="evenodd" clip-rule="evenodd" d="M28.2178 11.8267C28.3146 11.9121 28.3085 12.0456 28.2041 12.1248L23.1109 15.9917C23.0065 16.071 22.8434 16.066 22.7465 15.9806C22.6497 15.8952 22.6558 15.7617 22.7601 15.6825L27.8534 11.8156C27.9578 11.7364 28.1209 11.7413 28.2178 11.8267Z" fill="#094B35"/>
<path fill-rule="evenodd" clip-rule="evenodd" d="M6.38403 16.1089C6.43979 16.0017 6.5912 15.9518 6.72221 15.9974L11.634 17.7079C11.765 17.7535 11.826 17.8774 11.7702 17.9846C11.7145 18.0918 11.5631 18.1417 11.4321 18.096L6.52028 16.3856C6.38927 16.3399 6.32826 16.2161 6.38403 16.1089Z" fill="#094B35"/>
</svg>
