<svg width="16" height="18" viewBox="0 0 16 18" fill="none" xmlns="http://www.w3.org/2000/svg">
<path d="M12.71 2.29L15 0H7V8L9.3 5.7C11.27 7.16 12.55 9.48 12.55 12.12C12.55 13.43 12.23 14.66 11.67 15.75C14 14.23 15.55 11.61 15.55 8.62C15.55 6.1 14.44 3.85 12.71 2.29Z" fill="#094B35"/>
<path d="M3.45999 5.88C3.45999 4.57 3.77999 3.34 4.33999 2.25C1.99999 3.77 0.459991 6.39 0.459991 9.38C0.459991 11.9 1.55999 14.15 3.29999 15.71L0.999991 18H8.99999V10L6.69999 12.3C4.73999 10.84 3.45999 8.52 3.45999 5.88Z" fill="#094B35"/>
</svg>
