<svg width="16" height="21" viewBox="0 0 16 21" fill="none" xmlns="http://www.w3.org/2000/svg">
<path d="M5 8.24V4.5C5 3.12 6.12 2 7.5 2C8.88 2 10 3.12 10 4.5V8.24C11.21 7.43 12 6.06 12 4.5C12 2.01 9.99 0 7.5 0C5.01 0 3 2.01 3 4.5C3 6.06 3.79 7.43 5 8.24ZM14.84 12.87L10.3 10.61C10.13 10.54 9.95 10.5 9.76 10.5H9V4.5C9 3.67 8.33 3 7.5 3C6.67 3 6 3.67 6 4.5V15.24C2.4 14.48 2.46 14.49 2.33 14.49C2.02 14.49 1.74 14.62 1.54 14.82L0.75 15.62L5.69 20.56C5.96 20.83 6.34 21 6.75 21H13.54C14.29 21 14.87 20.45 14.98 19.72L15.73 14.45C15.74 14.38 15.75 14.31 15.75 14.25C15.75 13.63 15.37 13.09 14.84 12.87Z" fill="#094B35"/>
</svg>
